<svg width="77" height="25" viewBox="0 0 77 25" fill="none" xmlns="http://www.w3.org/2000/svg">
<path d="M12.1562 0.515625C12.9792 0.515625 13.7969 0.572917 14.6094 0.6875C15.4323 0.791667 16.2188 0.921875 16.9688 1.07812C17.7292 1.22396 18.4479 1.36979 19.125 1.51562C19.8021 1.66146 20.4115 1.76562 20.9531 1.82812C20.8281 2.20312 20.7656 2.86458 20.7656 3.8125C20.7656 5.65625 21.0417 7.25521 21.5938 8.60938C21.5312 8.79688 21.3385 8.91146 21.0156 8.95312L20.3438 7.51562C20.0104 6.79688 19.6094 6.08854 19.1406 5.39062C18.6719 4.68229 18.1094 4.05208 17.4531 3.5C16.7969 2.9375 16.0312 2.48438 15.1562 2.14062C14.2917 1.79688 13.2917 1.625 12.1562 1.625C11.1771 1.625 10.3073 1.78646 9.54688 2.10938C8.78646 2.43229 8.11979 2.86979 7.54688 3.42188C6.97396 3.96354 6.48958 4.59896 6.09375 5.32812C5.69792 6.04688 5.375 6.8125 5.125 7.625C4.88542 8.4375 4.70833 9.27083 4.59375 10.125C4.48958 10.9792 4.4375 11.8073 4.4375 12.6094C4.4375 13.9427 4.60938 15.2188 4.95312 16.4375C5.30729 17.6562 5.85417 18.7344 6.59375 19.6719C7.33333 20.599 8.27083 21.3385 9.40625 21.8906C10.5521 22.4427 11.9167 22.7188 13.5 22.7188C16.5312 22.7188 18.8229 21.7708 20.375 19.875C20.5417 19.875 20.6771 19.9219 20.7812 20.0156C20.8958 20.1094 20.9531 20.224 20.9531 20.3594C20.4531 21.099 19.8438 21.7396 19.125 22.2812C18.4167 22.8229 17.6615 23.2708 16.8594 23.625C16.0573 23.9688 15.2448 24.224 14.4219 24.3906C13.6094 24.5573 12.8542 24.6406 12.1562 24.6406C11.3958 24.6406 10.5729 24.5573 9.6875 24.3906C8.8125 24.2344 7.93229 23.9688 7.04688 23.5938C6.17188 23.2188 5.32812 22.7292 4.51562 22.125C3.71354 21.5104 3 20.7604 2.375 19.875C1.75 18.9792 1.25 17.9323 0.875 16.7344C0.5 15.5365 0.3125 14.1615 0.3125 12.6094C0.3125 11.0469 0.5 9.66667 0.875 8.46875C1.25 7.26042 1.75 6.20833 2.375 5.3125C3.01042 4.41667 3.73438 3.66667 4.54688 3.0625C5.36979 2.44792 6.21875 1.95312 7.09375 1.57812C7.96875 1.19271 8.84375 0.921875 9.71875 0.765625C10.5938 0.598958 11.4062 0.515625 12.1562 0.515625ZM24.9531 1.03125C26.0885 1.07292 27.5052 1.10417 29.2031 1.125C30.901 1.14583 32.8958 1.15625 35.1875 1.15625C37.4792 1.15625 39.474 1.14583 41.1719 1.125C42.8802 1.10417 44.3073 1.07292 45.4531 1.03125C45.5156 1.47917 45.5938 1.91146 45.6875 2.32812C45.7812 2.73438 45.9375 3.1875 46.1562 3.6875L46.625 4.75L47.7656 6.96875C47.6927 7.13542 47.5104 7.27604 47.2188 7.39062C46.8646 6.73438 46.4323 6.10938 45.9219 5.51562C45.4115 4.92188 44.7604 4.38542 43.9688 3.90625C43.1875 3.42708 42.2292 3.02604 41.0938 2.70312C39.9688 2.38021 38.6094 2.16146 37.0156 2.04688C36.9635 3.34896 36.9219 4.82292 36.8906 6.46875C36.8698 8.10417 36.8594 9.92708 36.8594 11.9375C36.8594 13.9583 36.8698 15.7917 36.8906 17.4375C36.9219 19.0833 36.9635 20.5573 37.0156 21.8594C37.026 22.1094 37.125 22.3229 37.3125 22.5C37.5 22.6667 37.7552 22.8073 38.0781 22.9219C38.4115 23.0365 38.7917 23.1302 39.2188 23.2031C39.6562 23.2656 40.125 23.3177 40.625 23.3594C40.6667 23.5365 40.6875 23.6771 40.6875 23.7812C40.6875 23.875 40.6667 23.9792 40.625 24.0938C38.875 24.0312 37.0625 24 35.1875 24C33.3229 24 31.5104 24.0312 29.75 24.0938C29.7083 23.9792 29.6875 23.875 29.6875 23.7812C29.6875 23.6771 29.7083 23.5365 29.75 23.3594L30.5 23.2812C30.7708 23.25 31.0729 23.2083 31.4062 23.1562C31.7396 23.0938 32.0469 23.0104 32.3281 22.9062C32.6198 22.8021 32.8646 22.6719 33.0625 22.5156C33.2604 22.3594 33.3594 22.1667 33.3594 21.9375V21.8594C33.4115 19.9531 33.4531 18.1771 33.4844 16.5312C33.5156 14.8854 33.5312 13.3542 33.5312 11.9375C33.5312 10.5312 33.5156 9.01042 33.4844 7.375C33.4531 5.72917 33.4115 3.95312 33.3594 2.04688C31.8594 2.13021 30.5521 2.33333 29.4375 2.65625C28.3333 2.96875 27.375 3.36458 26.5625 3.84375C25.75 4.3125 25.0729 4.85417 24.5312 5.46875C23.9896 6.07292 23.5417 6.71354 23.1875 7.39062C22.8958 7.27604 22.7135 7.13542 22.6406 6.96875L23.3438 5.64062L23.6719 4.96875C23.8073 4.6875 23.9427 4.40104 24.0781 4.10938C24.2135 3.81771 24.3385 3.51562 24.4531 3.20312C24.5781 2.88021 24.6823 2.54167 24.7656 2.1875C24.849 1.82292 24.9115 1.4375 24.9531 1.03125ZM49.4531 1.03125C51.4115 1.11458 53.875 1.15625 56.8438 1.15625L62.8906 17.5312H62.9688L69.2656 1.15625H71.0625C72.3542 1.15625 74.1771 1.11458 76.5312 1.03125C76.5729 1.19792 76.5938 1.3125 76.5938 1.375C76.5938 1.44792 76.5729 1.57812 76.5312 1.76562C76.1562 1.79688 75.8542 1.82812 75.625 1.85938C75.3958 1.89062 75.0885 1.94271 74.7031 2.01562C74.3281 2.08854 74.026 2.17708 73.7969 2.28125C73.5677 2.375 73.3646 2.51042 73.1875 2.6875C73.0104 2.85417 72.9167 3.04688 72.9062 3.26562C72.8021 5.71354 72.75 8.625 72.75 12C72.75 15.4271 72.8177 18.7135 72.9531 21.8594C72.9635 22.1302 73.0833 22.3646 73.3125 22.5625C73.5417 22.75 73.8698 22.8958 74.2969 23C74.7344 23.1042 75.099 23.1823 75.3906 23.2344C75.6927 23.276 76.0833 23.3177 76.5625 23.3594C76.6042 23.526 76.625 23.6667 76.625 23.7812C76.625 23.8646 76.6042 23.9688 76.5625 24.0938C74.8021 24.0312 72.9896 24 71.125 24C69.25 24 67.4375 24.0312 65.6875 24.0938C65.6458 23.9688 65.625 23.8646 65.625 23.7812C65.625 23.6042 65.6458 23.4635 65.6875 23.3594C66.1667 23.3177 66.5521 23.276 66.8438 23.2344C67.1458 23.1823 67.5104 23.1042 67.9375 23C68.375 22.8958 68.7083 22.75 68.9375 22.5625C69.1667 22.3646 69.2865 22.1302 69.2969 21.8594C69.401 18.6094 69.4531 15.7083 69.4531 13.1562C69.4531 10.7083 69.401 7.92188 69.2969 4.79688H69.1719L62.0312 23.6094H61.875L54.2656 4.42188H54.0938C54.0104 6.95312 53.9688 9.86458 53.9688 13.1562C53.9688 15.5729 54.0208 18.3958 54.125 21.625C54.1458 22.5729 55.2969 23.151 57.5781 23.3594C57.6302 23.5365 57.6562 23.6771 57.6562 23.7812C57.6562 23.8854 57.6302 23.9896 57.5781 24.0938C55.9219 24.0312 54.4427 24 53.1406 24C52.3073 24 50.9115 24.0312 48.9531 24.0938C48.901 23.9896 48.875 23.8854 48.875 23.7812C48.875 23.6042 48.901 23.4635 48.9531 23.3594C51.2552 23.1406 52.4062 22.5625 52.4062 21.625C52.5312 18.375 52.5938 15.1667 52.5938 12C52.5938 9.71875 52.5625 7.29688 52.5 4.73438C52.4896 4.29688 52.4635 3.93229 52.4219 3.64062C52.3802 3.33854 52.3021 3.07812 52.1875 2.85938C52.0729 2.64062 51.9531 2.46875 51.8281 2.34375C51.7031 2.21875 51.5104 2.10938 51.25 2.01562C50.9896 1.91146 50.7344 1.83854 50.4844 1.79688C50.2448 1.74479 49.901 1.6875 49.4531 1.625C49.4115 1.54167 49.3906 1.44792 49.3906 1.34375C49.3906 1.21875 49.4115 1.11458 49.4531 1.03125Z" fill="#00A63E"/>
</svg>
